<svg xmlns="http://www.w3.org/2000/svg" width="136" height="200"><path fill="#fff" d="M133.15 126.247c-2.442 5.66-5.332 10.87-8.681 15.66-4.565 6.53-8.302 11.05-11.182 13.56-4.465 4.12-9.249 6.23-14.372 6.35-3.677 0-8.112-1.05-13.275-3.18-5.18-2.12-9.939-3.17-14.291-3.17-4.565 0-9.46 1.05-14.697 3.17-5.244 2.13-9.469 3.24-12.699 3.35-4.912.21-9.808-1.96-14.696-6.52-3.12-2.73-7.021-7.41-11.695-14.04-5.015-7.08-9.138-15.29-12.369-24.65C1.734 106.667 0 96.878 0 87.4c0-10.856 2.338-20.22 7.021-28.067 3.68-6.303 8.577-11.274 14.706-14.924 6.128-3.65 12.75-5.51 19.88-5.63 3.902 0 9.019 1.212 15.377 3.592 6.34 2.388 10.412 3.599 12.197 3.599 1.334 0 5.857-1.416 13.524-4.24 7.25-2.617 13.37-3.701 18.383-3.274 13.584 1.1 23.79 6.473 30.577 16.152-12.15 7.386-18.159 17.73-18.04 31.001.11 10.337 3.848 18.939 11.193 25.769 3.329 3.17 7.046 5.62 11.182 7.36-.897 2.61-1.844 5.11-2.85 7.51zM101.995 3.241c0 8.102-2.95 15.666-8.83 22.668-7.096 8.324-15.68 13.134-24.987 12.375a25.305 25.305 0 0 1-.187-3.07c0-7.778 3.375-16.102 9.367-22.907C80.35 8.86 84.155 5.996 88.77 3.71 93.374 1.458 97.73.213 101.826 0c.12 1.083.169 2.166.169 3.24z"/></svg>
