<svg xmlns="http://www.w3.org/2000/svg" width="161" height="106"><path d="M155.027 18h-13.53c-2.72 0-4.95 2.082-4.974 4.64h.005l-.01.312.005.24-.06.78h.062c.006 7.576.002 45.391-.002 60.536H125c-6.347 0-11.51-4.827-11.51-10.762V22.65c0-2.564-2.231-4.649-4.974-4.649H94.975C92.233 18 90 20.085 90 22.649c-.004 22.324.009 36.717.015 45.725l.006 9.181c0 17.004 20.416 27.445 35.053 27.445 9.733 0 15.78-4.431 15.78-11.565v-4.877h4.403c7.027 0 14.742-7.24 14.742-13.833V22.649c0-2.564-2.23-4.649-4.973-4.649zm-14.173 4.644c.003-.327.292-.594.643-.594h13.53c.354 0 .64.27.64.599v52.076c0 4.388-5.739 9.783-10.409 9.783h-4.402c.005-32.047.006-61.564-.002-61.864zm-15.78 78.306c-12.826 0-30.72-8.901-30.72-23.395l-.006-8.537c-.006-8.96-.019-23.505-.015-46.37 0-.329.288-.598.642-.598h13.541c.354 0 .643.27.643.599v51.097c0 8.168 7.105 14.812 15.841 14.812h11.523l-.001 4.908c0 6.755-8.005 7.484-11.447 7.484zM70.979 28.447C70.978 11.44 50.562 1 35.925 1c-9.733 0-15.78 4.431-15.78 11.565v4.878h-4.403C8.715 17.443 1 24.683 1 31.275v52.076C1 85.915 3.23 88 5.973 88h13.53c2.72 0 4.95-2.08 4.973-4.644h-.004l.01-.305-.006-.299c-.007-5.42-.003-45.545 0-61.26H36c6.347 0 11.51 4.827 11.51 10.762v51.097c0 2.564 2.231 4.649 4.974 4.649h13.543c2.742 0 4.972-2.085 4.972-4.649.004-22.864-.009-37.41-.016-46.371l-.005-8.533zM36 17.443H24.476l.002-4.908c0-6.756 8.005-7.485 11.447-7.485 12.828 0 30.72 8.901 30.72 23.397l.007 8.536c.008 8.96.02 23.505.015 46.368 0 .332-.287.6-.64.6H52.484c-.352 0-.641-.268-.641-.6V32.254c0-8.168-7.107-14.811-15.843-14.811zM20.146 83.357c-.003.33-.292.595-.643.595H5.973c-.354 0-.64-.269-.64-.6V31.274c0-4.387 5.738-9.783 10.409-9.783h4.402c-.003 32.048-.006 61.564.002 61.865z" fill="#FFF" fill-rule="evenodd" stroke="#FFF"/></svg>
